<svg id="visual" viewBox="0 0 900 600" width="900" height="600" xmlns="http://www.w3.org/2000/svg" xmlns:xlink="http://www.w3.org/1999/xlink" version="1.1"><path d="M0 37L8.8 38C17.7 39 35.3 41 53 44C70.7 47 88.3 51 106 57C123.7 63 141.3 71 159 69C176.7 67 194.3 55 212 54C229.7 53 247.3 63 265 61C282.7 59 300.3 45 318 41C335.7 37 353.3 43 371 47C388.7 51 406.3 53 423.8 54C441.3 55 458.7 55 476.2 55C493.7 55 511.3 55 529 59C546.7 63 564.3 71 582 70C599.7 69 617.3 59 635 52C652.7 45 670.3 41 688 39C705.7 37 723.3 37 741 40C758.7 43 776.3 49 794 47C811.7 45 829.3 35 847 36C864.7 37 882.3 49 891.2 55L900 61L900 0L891.2 0C882.3 0 864.7 0 847 0C829.3 0 811.7 0 794 0C776.3 0 758.7 0 741 0C723.3 0 705.7 0 688 0C670.3 0 652.7 0 635 0C617.3 0 599.7 0 582 0C564.3 0 546.7 0 529 0C511.3 0 493.7 0 476.2 0C458.7 0 441.3 0 423.8 0C406.3 0 388.7 0 371 0C353.3 0 335.7 0 318 0C300.3 0 282.7 0 265 0C247.3 0 229.7 0 212 0C194.3 0 176.7 0 159 0C141.3 0 123.7 0 106 0C88.3 0 70.7 0 53 0C35.3 0 17.7 0 8.8 0L0 0Z" fill="#6198ff"></path><path d="M0 97L8.8 102C17.7 107 35.3 117 53 120C70.7 123 88.3 119 106 131C123.7 143 141.3 171 159 176C176.7 181 194.3 163 212 150C229.7 137 247.3 129 265 121C282.7 113 300.3 105 318 102C335.7 99 353.3 101 371 108C388.7 115 406.3 127 423.8 135C441.3 143 458.7 147 476.2 146C493.7 145 511.3 139 529 142C546.7 145 564.3 157 582 163C599.7 169 617.3 169 635 156C652.7 143 670.3 117 688 115C705.7 113 723.3 135 741 149C758.7 163 776.3 169 794 157C811.7 145 829.3 115 847 115C864.7 115 882.3 145 891.2 160L900 175L900 59L891.2 53C882.3 47 864.7 35 847 34C829.3 33 811.7 43 794 45C776.3 47 758.7 41 741 38C723.3 35 705.7 35 688 37C670.3 39 652.7 43 635 50C617.3 57 599.7 67 582 68C564.3 69 546.7 61 529 57C511.3 53 493.7 53 476.2 53C458.7 53 441.3 53 423.8 52C406.3 51 388.7 49 371 45C353.3 41 335.7 35 318 39C300.3 43 282.7 57 265 59C247.3 61 229.7 51 212 52C194.3 53 176.7 65 159 67C141.3 69 123.7 61 106 55C88.3 49 70.7 45 53 42C35.3 39 17.7 37 8.8 36L0 35Z" fill="#4988ff"></path><path d="M0 151L8.8 158C17.7 165 35.3 179 53 180C70.7 181 88.3 169 106 174C123.7 179 141.3 201 159 208C176.7 215 194.3 207 212 197C229.7 187 247.3 175 265 169C282.7 163 300.3 163 318 160C335.7 157 353.3 151 371 157C388.7 163 406.3 181 423.8 189C441.3 197 458.7 195 476.2 191C493.7 187 511.3 181 529 182C546.7 183 564.3 191 582 197C599.7 203 617.3 207 635 197C652.7 187 670.3 163 688 164C705.7 165 723.3 191 741 207C758.7 223 776.3 229 794 213C811.7 197 829.3 159 847 160C864.7 161 882.3 201 891.2 221L900 241L900 173L891.2 158C882.3 143 864.7 113 847 113C829.3 113 811.7 143 794 155C776.3 167 758.7 161 741 147C723.3 133 705.7 111 688 113C670.3 115 652.7 141 635 154C617.3 167 599.7 167 582 161C564.3 155 546.7 143 529 140C511.3 137 493.7 143 476.2 144C458.7 145 441.3 141 423.8 133C406.3 125 388.7 113 371 106C353.3 99 335.7 97 318 100C300.3 103 282.7 111 265 119C247.3 127 229.7 135 212 148C194.3 161 176.7 179 159 174C141.3 169 123.7 141 106 129C88.3 117 70.7 121 53 118C35.3 115 17.7 105 8.8 100L0 95Z" fill="#2d77ff"></path><path d="M0 355L8.8 343C17.7 331 35.3 307 53 294C70.7 281 88.3 279 106 285C123.7 291 141.3 305 159 313C176.7 321 194.3 323 212 317C229.7 311 247.3 297 265 299C282.7 301 300.3 319 318 329C335.7 339 353.3 341 371 350C388.7 359 406.3 375 423.8 366C441.3 357 458.7 323 476.2 324C493.7 325 511.3 361 529 358C546.7 355 564.3 313 582 294C599.7 275 617.3 279 635 292C652.7 305 670.3 327 688 328C705.7 329 723.3 309 741 302C758.7 295 776.3 301 794 291C811.7 281 829.3 255 847 281C864.7 307 882.3 385 891.2 424L900 463L900 239L891.2 219C882.3 199 864.7 159 847 158C829.3 157 811.7 195 794 211C776.3 227 758.7 221 741 205C723.3 189 705.7 163 688 162C670.3 161 652.7 185 635 195C617.3 205 599.7 201 582 195C564.3 189 546.7 181 529 180C511.3 179 493.7 185 476.2 189C458.7 193 441.3 195 423.8 187C406.3 179 388.7 161 371 155C353.3 149 335.7 155 318 158C300.3 161 282.7 161 265 167C247.3 173 229.7 185 212 195C194.3 205 176.7 213 159 206C141.3 199 123.7 177 106 172C88.3 167 70.7 179 53 178C35.3 177 17.7 163 8.8 156L0 149Z" fill="#0066ff"></path><path d="M0 439L8.8 429C17.7 419 35.3 399 53 379C70.7 359 88.3 339 106 335C123.7 331 141.3 343 159 362C176.7 381 194.3 407 212 412C229.7 417 247.3 401 265 402C282.7 403 300.3 421 318 424C335.7 427 353.3 415 371 415C388.7 415 406.3 427 423.8 415C441.3 403 458.7 367 476.2 374C493.7 381 511.3 431 529 436C546.7 441 564.3 401 582 383C599.7 365 617.3 369 635 381C652.7 393 670.3 413 688 411C705.7 409 723.3 385 741 372C758.7 359 776.3 357 794 347C811.7 337 829.3 319 847 344C864.7 369 882.3 437 891.2 471L900 505L900 461L891.2 422C882.3 383 864.7 305 847 279C829.3 253 811.7 279 794 289C776.3 299 758.7 293 741 300C723.3 307 705.7 327 688 326C670.3 325 652.7 303 635 290C617.3 277 599.7 273 582 292C564.3 311 546.7 353 529 356C511.3 359 493.7 323 476.2 322C458.7 321 441.3 355 423.8 364C406.3 373 388.7 357 371 348C353.3 339 335.7 337 318 327C300.3 317 282.7 299 265 297C247.3 295 229.7 309 212 315C194.3 321 176.7 319 159 311C141.3 303 123.7 289 106 283C88.3 277 70.7 279 53 292C35.3 305 17.7 329 8.8 341L0 353Z" fill="#005de8"></path><path d="M0 517L8.8 520C17.7 523 35.3 529 53 529C70.7 529 88.3 523 106 520C123.7 517 141.3 517 159 526C176.7 535 194.3 553 212 562C229.7 571 247.3 571 265 567C282.7 563 300.3 555 318 553C335.7 551 353.3 555 371 556C388.7 557 406.3 555 423.8 552C441.3 549 458.7 545 476.2 546C493.7 547 511.3 553 529 551C546.7 549 564.3 539 582 540C599.7 541 617.3 553 635 557C652.7 561 670.3 557 688 549C705.7 541 723.3 529 741 523C758.7 517 776.3 517 794 518C811.7 519 829.3 521 847 531C864.7 541 882.3 559 891.2 568L900 577L900 503L891.2 469C882.3 435 864.7 367 847 342C829.3 317 811.7 335 794 345C776.3 355 758.7 357 741 370C723.3 383 705.7 407 688 409C670.3 411 652.7 391 635 379C617.3 367 599.7 363 582 381C564.3 399 546.7 439 529 434C511.3 429 493.7 379 476.2 372C458.7 365 441.3 401 423.8 413C406.3 425 388.7 413 371 413C353.3 413 335.7 425 318 422C300.3 419 282.7 401 265 400C247.3 399 229.7 415 212 410C194.3 405 176.7 379 159 360C141.3 341 123.7 329 106 333C88.3 337 70.7 357 53 377C35.3 397 17.7 417 8.8 427L0 437Z" fill="#0055d1"></path><path d="M0 601L8.8 601C17.7 601 35.3 601 53 601C70.7 601 88.3 601 106 601C123.7 601 141.3 601 159 601C176.7 601 194.3 601 212 601C229.7 601 247.3 601 265 601C282.7 601 300.3 601 318 601C335.7 601 353.3 601 371 601C388.7 601 406.3 601 423.8 601C441.3 601 458.7 601 476.2 601C493.7 601 511.3 601 529 601C546.7 601 564.3 601 582 601C599.7 601 617.3 601 635 601C652.7 601 670.3 601 688 601C705.7 601 723.3 601 741 601C758.7 601 776.3 601 794 601C811.7 601 829.3 601 847 601C864.7 601 882.3 601 891.2 601L900 601L900 575L891.2 566C882.3 557 864.7 539 847 529C829.3 519 811.7 517 794 516C776.3 515 758.7 515 741 521C723.3 527 705.7 539 688 547C670.3 555 652.7 559 635 555C617.3 551 599.7 539 582 538C564.3 537 546.7 547 529 549C511.3 551 493.7 545 476.2 544C458.7 543 441.3 547 423.8 550C406.3 553 388.7 555 371 554C353.3 553 335.7 549 318 551C300.3 553 282.7 561 265 565C247.3 569 229.7 569 212 560C194.3 551 176.7 533 159 524C141.3 515 123.7 515 106 518C88.3 521 70.7 527 53 527C35.3 527 17.7 521 8.8 518L0 515Z" fill="#004cbb"></path></svg>